<svg width="22" height="21" viewBox="0 0 22 21" fill="none" xmlns="http://www.w3.org/2000/svg">
<path d="M10.8871 19.6596H20.1613M1.61292 19.6596H3.33848C3.84256 19.6596 4.09461 19.6596 4.33179 19.6026C4.54208 19.5521 4.74312 19.4689 4.92751 19.3559C5.1355 19.2284 5.31372 19.0502 5.67016 18.6937L18.6157 5.74825C19.4693 4.89459 19.4693 3.51052 18.6157 2.65685C17.762 1.80318 16.3779 1.80319 15.5243 2.65685L2.57873 15.6023C2.22229 15.9588 2.04407 16.137 1.91661 16.345C1.80362 16.5294 1.72035 16.7304 1.66986 16.9407C1.61292 17.1779 1.61292 17.4299 1.61292 17.934V19.6596Z" stroke="#98A2B3" stroke-width="2.06093" stroke-linecap="round" stroke-linejoin="round"/>
</svg>
