<svg width="80" height="88" viewBox="0 0 80 88" fill="none" xmlns="http://www.w3.org/2000/svg">
<path d="M26.0417 0C21.2571 0 17.3035 3.68047 16.7725 8.33333H9.375C4.20625 8.33333 0 12.5396 0 17.7083V73.9583C0 79.1271 4.20625 83.3333 9.375 83.3333H36.735C34.9538 81.4812 33.4388 79.3812 32.2388 77.0833H9.375C7.65208 77.0833 6.25 75.6812 6.25 73.9583V17.7083C6.25 15.9854 7.65208 14.5833 9.375 14.5833H18.2699C19.9609 17.0873 22.8223 18.75 26.0417 18.75H40.625C43.8443 18.75 46.7058 17.0873 48.3968 14.5833H57.2917C59.0146 14.5833 60.4167 15.9854 60.4167 17.7083V37.854C62.5937 38.1915 64.6937 38.7563 66.6667 39.5793V17.7083C66.6667 12.5396 62.4604 8.33333 57.2917 8.33333H49.8942C49.3631 3.68047 45.4096 0 40.625 0H26.0417ZM26.0417 6.25H40.625C42.3885 6.25 43.75 7.61146 43.75 9.375C43.75 11.1385 42.3885 12.5 40.625 12.5H26.0417C24.2781 12.5 22.9167 11.1385 22.9167 9.375C22.9167 7.61146 24.2781 6.25 26.0417 6.25ZM17.7083 29.1667C17.2942 29.1608 16.8831 29.2373 16.4988 29.3917C16.1145 29.5462 15.7648 29.7754 15.4699 30.0662C15.175 30.3569 14.9408 30.7034 14.781 31.0855C14.6211 31.4675 14.5388 31.8775 14.5388 32.2917C14.5388 32.7058 14.6211 33.1158 14.781 33.4979C14.9408 33.8799 15.175 34.2264 15.4699 34.5172C15.7648 34.8079 16.1145 35.0372 16.4988 35.1916C16.8831 35.346 17.2942 35.4225 17.7083 35.4167H48.9583C49.3724 35.4225 49.7836 35.346 50.1678 35.1916C50.5521 35.0372 50.9019 34.8079 51.1968 34.5172C51.4917 34.2264 51.7259 33.8799 51.8857 33.4979C52.0455 33.1158 52.1278 32.7058 52.1278 32.2917C52.1278 31.8775 52.0455 31.4675 51.8857 31.0855C51.7259 30.7034 51.4917 30.3569 51.1968 30.0662C50.9019 29.7754 50.5521 29.5462 50.1678 29.3917C49.7836 29.2373 49.3724 29.1608 48.9583 29.1667H17.7083ZM17.7083 41.6667C15.9833 41.6667 14.5833 43.0646 14.5833 44.7917C14.5833 46.5187 15.9833 47.9167 17.7083 47.9167H34.9325C36.8616 45.4521 39.2036 43.3396 41.862 41.6667H17.7083ZM56.25 41.6667C43.5937 41.6667 33.3333 51.9271 33.3333 64.5833C33.3333 77.2396 43.5937 87.5 56.25 87.5C68.9062 87.5 79.1667 77.2396 79.1667 64.5833C79.1667 51.9271 68.9062 41.6667 56.25 41.6667ZM45.8333 52.0833C46.3661 52.0833 46.899 52.2864 47.3063 52.6937L56.25 61.6374L65.1937 52.6937C66.0083 51.8791 67.3251 51.8791 68.1396 52.6937C68.9542 53.5083 68.9542 54.8251 68.1396 55.6396L59.196 64.5833L68.1396 73.527C68.9542 74.3416 68.9542 75.6584 68.1396 76.473C67.7334 76.8792 67.2 77.0833 66.6667 77.0833C66.1333 77.0833 65.5999 76.8792 65.1937 76.473L56.25 67.5293L47.3063 76.473C46.9001 76.8792 46.3667 77.0833 45.8333 77.0833C45.3 77.0833 44.7666 76.8792 44.3603 76.473C43.5458 75.6584 43.5458 74.3416 44.3603 73.527L53.304 64.5833L44.3603 55.6396C43.5458 54.8251 43.5458 53.5083 44.3603 52.6937C44.7676 52.2864 45.3005 52.0833 45.8333 52.0833ZM17.7083 54.1667C15.9833 54.1667 14.5833 55.5646 14.5833 57.2917C14.5833 59.0187 15.9833 60.4167 17.7083 60.4167H29.5207C29.8582 58.2396 30.425 56.1396 31.25 54.1667H17.7083Z" fill="black"/>
</svg>
