<svg width="21" height="20" viewBox="0 0 21 20" fill="none" xmlns="http://www.w3.org/2000/svg">
<path d="M6.53605 0.9912C6.68592 0.693221 6.91564 0.442746 7.19958 0.267722C7.48352 0.0926984 7.8105 1.02884e-05 8.14405 0H12.6608C12.9953 1.1298e-05 13.3231 0.093207 13.6076 0.269134C13.892 0.445061 14.1219 0.69676 14.2712 0.996L14.9732 2.4H17.0012C17.7969 2.4 18.56 2.71607 19.1226 3.27868C19.6852 3.84129 20.0012 4.60435 20.0012 5.4V8.034C19.6508 7.73113 19.2426 7.50252 18.8012 7.362V5.4C18.8012 4.92261 18.6116 4.46477 18.274 4.12721C17.9365 3.78964 17.4786 3.6 17.0012 3.6H14.6012C14.4901 3.59977 14.3812 3.56869 14.2867 3.51021C14.1922 3.45173 14.1158 3.36815 14.066 3.2688L13.1984 1.5324C13.1486 1.43246 13.0719 1.34839 12.977 1.28967C12.882 1.23095 12.7725 1.19989 12.6608 1.2H8.14405C8.03284 1.19989 7.92379 1.23069 7.82907 1.28897C7.73435 1.34724 7.65769 1.43069 7.60765 1.53L6.73405 3.2688C6.6841 3.36793 6.60762 3.45126 6.51314 3.50952C6.41865 3.56778 6.30985 3.59869 6.19885 3.5988H3.80125C3.32386 3.5988 2.86602 3.78844 2.52846 4.12601C2.19089 4.46357 2.00125 4.92141 2.00125 5.3988V15C2.00125 15.4774 2.19089 15.9352 2.52846 16.2728C2.86602 16.6104 3.32386 16.8 3.80125 16.8H8.26045L8.06485 17.5836C8.03068 17.7201 8.00899 17.8595 8.00005 18H3.80005C3.0044 18 2.24134 17.6839 1.67873 17.1213C1.11612 16.5587 0.800049 15.7957 0.800049 15V5.4C0.800049 4.60435 1.11612 3.84129 1.67873 3.27868C2.24134 2.71607 3.0044 2.4 3.80005 2.4H5.82805L6.53605 0.9912ZM15.0608 8.4672C14.7797 7.33 14.0926 6.33478 13.1289 5.66884C12.1651 5.00291 10.9912 4.71219 9.82808 4.85141C8.66494 4.99062 7.5928 5.55017 6.81345 6.42474C6.03409 7.29931 5.60127 8.42857 5.59645 9.6C5.59645 11.868 7.16845 13.7676 9.28285 14.2704C9.35944 14.1779 9.44033 14.089 9.52525 14.004L10.3292 13.2C9.62314 13.1867 8.93654 12.966 8.35493 12.5654C7.77332 12.1647 7.32239 11.6019 7.05829 10.9469C6.79418 10.2919 6.72857 9.5737 6.86961 8.88169C7.01065 8.18968 7.35212 7.55444 7.8515 7.05506C8.35089 6.55567 8.98613 6.2142 9.67814 6.07316C10.3701 5.93212 11.0884 5.99774 11.7433 6.26184C12.3983 6.52594 12.9612 6.97687 13.3618 7.55848C13.7624 8.14009 13.9831 8.82669 13.9964 9.5328L15.0608 8.4672ZM16.1672 9.0576L10.3712 14.8536C10.0339 15.1914 9.79457 15.6144 9.67885 16.0776L9.22885 17.8752C9.18447 18.054 9.18709 18.2412 9.23645 18.4187C9.28581 18.5962 9.38024 18.7578 9.51055 18.888C9.64087 19.0182 9.80264 19.1125 9.98016 19.1617C10.1577 19.2109 10.3449 19.2133 10.5236 19.1688L12.3212 18.72C12.7846 18.6041 13.2077 18.3643 13.5452 18.0264L19.3412 12.2304C19.7566 11.8084 19.9883 11.2393 19.9859 10.6472C19.9835 10.055 19.7472 9.48787 19.3284 9.06924C18.9096 8.65062 18.3424 8.41449 17.7502 8.41231C17.1581 8.41013 16.5891 8.64207 16.1672 9.0576Z" fill="black"/>
</svg>
