<svg width="35" height="25" viewBox="0 0 35 25" fill="none" xmlns="http://www.w3.org/2000/svg">
<path d="M8.75 24.5553C6.33182 24.5553 4.26894 23.7522 2.56136 22.1458C0.853788 20.5293 0 18.5597 0 16.2372C0 14.2421 0.620455 12.4618 1.86136 10.8964C3.11288 9.33103 4.74621 8.33347 6.76136 7.90375C7.42955 5.55053 8.7553 3.64749 10.7386 2.19463C12.7326 0.731544 14.9864 0 17.5 0C20.6076 0 23.2379 1.0436 25.3909 3.13081C27.5545 5.20778 28.6364 7.74516 28.6364 10.743C30.4712 10.9476 31.9879 11.7149 33.1864 13.045C34.3955 14.3546 35 15.8893 35 17.6491C35 19.5726 34.3053 21.2046 32.9159 22.5449C31.5265 23.8852 29.8348 24.5553 27.8409 24.5553H19.0909C18.2212 24.5553 17.4735 24.2535 16.8477 23.6499C16.222 23.0564 15.9091 22.3351 15.9091 21.4859V13.5822L13.3636 15.961L11.1364 13.8124L17.5 7.67354L23.8636 13.8124L21.6364 15.961L19.0909 13.5822V21.4859H27.8409C28.9545 21.4859 29.8932 21.1125 30.6568 20.3656C31.4311 19.6289 31.8182 18.7234 31.8182 17.6491C31.8182 16.5749 31.4311 15.6694 30.6568 14.9327C29.8932 14.1858 28.9545 13.8124 27.8409 13.8124H25.4545V10.743C25.4545 8.62506 24.6803 6.81411 23.1318 5.31009C21.5833 3.81631 19.7061 3.06942 17.5 3.06942C15.3045 3.06942 13.4273 3.81631 11.8682 5.31009C10.3197 6.81411 9.54545 8.62506 9.54545 10.743H8.75C7.21212 10.743 5.90227 11.2699 4.82045 12.3237C3.72803 13.3673 3.18182 14.6309 3.18182 16.1144C3.18182 17.598 3.72803 18.8769 4.82045 19.9512C5.90227 20.9743 7.21212 21.4859 8.75 21.4859H12.7273V24.5553" fill="#101828"/>
</svg>
